<?xml version="1.0" standalone="no"?>
<!DOCTYPE svg PUBLIC "-//W3C//DTD SVG 20010904//EN"
 "http://www.w3.org/TR/2001/REC-SVG-20010904/DTD/svg10.dtd">
<svg version="1.0" xmlns="http://www.w3.org/2000/svg"
 width="512.000000pt" height="512.000000pt" viewBox="0 0 512.000000 512.000000"
 preserveAspectRatio="xMidYMid meet">

<g transform="translate(0.000000,512.000000) scale(0.100000,-0.100000)"
fill="#000000" stroke="none">
<path d="M2083 5095 c-1051 -199 -1865 -1015 -2058 -2063 -14 -73 -25 -147
-25 -163 0 -51 35 -105 83 -128 41 -20 58 -21 372 -21 435 0 423 -5 471 209
36 157 59 221 135 376 87 178 175 301 314 440 139 139 262 227 440 314 155 76
219 99 376 135 134 30 162 45 188 99 20 41 21 58 21 372 0 314 -1 331 -21 372
-25 51 -78 83 -136 82 -21 0 -93 -11 -160 -24z"/>
<path d="M2777 5098 c-23 -14 -45 -38 -57 -63 -19 -39 -20 -62 -20 -370 0
-433 -4 -423 212 -472 324 -73 576 -212 814 -448 322 -321 485 -709 487 -1165
1 -177 -10 -269 -49 -420 -44 -169 -129 -365 -213 -489 -73 -107 -84 -145 -61
-208 12 -32 461 -487 502 -509 35 -18 101 -18 138 1 86 45 318 428 420 695
162 423 209 900 134 1345 -21 127 -75 333 -118 450 -57 153 -185 407 -274 540
-107 160 -194 267 -327 400 -377 378 -843 620 -1374 715 -143 25 -167 25 -214
-2z"/>
<path d="M2378 3580 c-23 -12 -46 -36 -58 -60 -20 -38 -20 -57 -20 -930 l0
-890 250 0 250 0 0 891 c0 985 3 934 -64 982 -28 20 -44 22 -176 24 -129 3
-149 1 -182 -17z"/>
<path d="M3100 2451 l0 -751 190 0 c221 0 254 9 290 80 19 38 20 58 20 671 0
697 2 675 -64 722 -29 21 -43 22 -233 25 l-203 3 0 -750z"/>
<path d="M1578 2779 c-23 -12 -46 -35 -58 -59 -19 -37 -20 -58 -20 -466 0
-411 1 -429 21 -470 15 -31 32 -48 63 -63 38 -19 61 -21 229 -21 l187 0 0 550
0 550 -192 0 c-172 -1 -197 -3 -230 -21z"/>
<path d="M84 2400 c-46 -23 -84 -81 -84 -128 0 -110 87 -459 160 -642 239
-599 681 -1079 1255 -1360 190 -94 314 -140 490 -186 552 -141 1115 -102 1635
115 261 109 584 311 625 391 19 37 19 103 1 138 -22 41 -477 490 -509 502 -60
22 -103 11 -195 -52 -179 -123 -438 -222 -677 -259 -115 -18 -379 -16 -499 5
-340 58 -639 206 -880 436 -249 239 -403 513 -480 852 -29 128 -47 162 -101
188 -39 19 -63 20 -371 20 -310 0 -331 -1 -370 -20z"/>
</g>
</svg>
