<?xml version="1.0" standalone="no"?>
<!DOCTYPE svg PUBLIC "-//W3C//DTD SVG 20010904//EN"
 "http://www.w3.org/TR/2001/REC-SVG-20010904/DTD/svg10.dtd">
<svg version="1.0" xmlns="http://www.w3.org/2000/svg"
 width="209.000000pt" height="52.000000pt" viewBox="0 0 209.000000 52.000000"
 preserveAspectRatio="xMidYMid meet">

<g transform="translate(0.000000,52.000000) scale(0.100000,-0.100000)"
fill="#000000" stroke="none">
<path d="M162 484 c-57 -28 -96 -69 -123 -129 -30 -64 -26 -75 25 -75 41 0 45
2 51 31 9 39 65 95 104 104 29 6 31 10 31 51 0 53 -12 56 -88 18z"/>
<path d="M287 504 c-4 -4 -7 -23 -7 -41 0 -30 5 -36 38 -50 46 -19 70 -39 89
-77 19 -37 19 -106 -1 -143 -15 -29 -14 -31 14 -58 34 -32 45 -27 71 29 22 49
25 143 5 190 -19 45 -79 110 -119 129 -44 21 -81 30 -90 21z"/>
<path d="M580 265 l0 -107 66 4 c60 4 70 7 95 36 20 22 29 43 29 67 0 24 -9
45 -29 67 -25 29 -35 32 -95 36 l-66 4 0 -107z m120 45 c40 -40 19 -100 -35
-100 l-35 0 0 60 c0 57 1 60 25 60 14 0 34 -9 45 -20z"/>
<path d="M800 265 l0 -105 25 0 25 0 0 105 0 105 -25 0 -25 0 0 -105z"/>
<path d="M927 359 c-23 -13 -47 -62 -47 -94 0 -34 25 -82 49 -95 11 -5 38 -10
61 -10 53 0 100 42 100 89 0 31 0 31 -55 31 -48 0 -55 -2 -55 -20 0 -16 7 -20
31 -20 27 0 30 -2 19 -15 -7 -8 -28 -15 -46 -15 -27 0 -37 5 -46 25 -19 42 0
79 41 83 18 2 38 -1 44 -7 16 -16 57 -14 57 3 0 8 -12 24 -26 35 -29 23 -96
28 -127 10z"/>
<path d="M1120 265 l0 -105 25 0 25 0 0 105 0 105 -25 0 -25 0 0 -105z"/>
<path d="M1200 265 l0 -105 29 0 c28 0 30 3 33 43 l3 42 23 -42 c19 -36 27
-43 53 -43 l30 0 -23 39 -23 40 23 23 c28 31 28 53 -3 83 -20 21 -34 25 -85
25 l-60 0 0 -105z m107 54 c17 -17 4 -39 -23 -39 -19 0 -24 5 -24 25 0 27 26
35 47 14z"/>
<path d="M1426 269 c-20 -55 -36 -102 -36 -105 0 -2 12 -4 26 -4 17 0 28 6 31
20 8 29 82 29 90 0 4 -14 14 -20 33 -20 l29 0 -29 78 c-51 139 -47 132 -79
132 -27 0 -30 -4 -65 -101z m72 -27 c-28 -5 -30 0 -16 39 l11 33 12 -34 c11
-32 10 -35 -7 -38z"/>
<path d="M1620 265 c0 -105 0 -105 25 -105 23 0 24 4 27 63 l3 62 43 -62 c33
-49 48 -63 67 -63 25 0 25 0 25 105 0 105 0 105 -25 105 -23 0 -24 -4 -27 -62
l-3 -63 -40 63 c-33 51 -45 62 -67 62 l-28 0 0 -105z"/>
<path d="M1850 264 l0 -106 64 4 c73 4 99 21 116 74 10 28 8 40 -7 71 -22 47
-53 63 -120 63 l-53 0 0 -106z m108 50 c15 -10 22 -25 22 -48 0 -39 -15 -56
-52 -56 -28 0 -28 1 -28 60 0 66 13 76 58 44z"/>
<path d="M247 353 c-4 -3 -7 -44 -7 -90 0 -82 0 -83 25 -83 25 0 25 1 25 90 0
81 -2 90 -18 90 -10 0 -22 -3 -25 -7z"/>
<path d="M320 250 c0 -68 1 -71 23 -68 20 3 22 8 22 68 0 60 -2 65 -22 68 -22
3 -23 0 -23 -68z"/>
<path d="M177 283 c-4 -3 -7 -28 -7 -55 0 -41 3 -48 20 -48 18 0 20 7 20 55 0
39 -4 55 -13 55 -8 0 -17 -3 -20 -7z"/>
<path d="M25 240 c-12 -19 19 -92 57 -135 52 -59 109 -85 184 -85 59 0 134 25
149 50 4 7 -4 24 -20 40 -27 28 -29 29 -58 14 -37 -20 -106 -20 -143 -1 -38
19 -58 43 -77 90 -14 33 -20 37 -51 37 -19 0 -38 -4 -41 -10z"/>
</g>
</svg>
